{
  "accessors": [
    {
      "bufferView": 2,
      "componentType": 5126,
      "count": 930,
      "max": [
        2.0934629440307617,
        0.6201069951057434,
        10.416407585144043
      ],
      "min": [
        -1.416759967803955,
        -0.7815979719161987,
        2.6516759395599365
      ],
      "type": "VEC3"
    },
    {
      "bufferView": 2,
      "byteOffset": 11160,
      "componentType": 5126,
      "count": 930,
      "max": [
        0.9991545081138611,
        0.9999727606773376,
        0.9991545081138611
      ],
      "min": [
        -0.9991517663002014,
        -0.9999726414680481,
        -0.9991514682769775
      ],
      "type": "VEC3"
    },
    {
      "bufferView": 1,
      "componentType": 5126,
      "count": 930,
      "max": [
        0.875,
        1.0
      ],
      "min": [
        0.125,
        0.0
      ],
      "type": "VEC2"
    },
    {
      "bufferView": 0,
      "componentType": 5125,
      "count": 4500,
      "type": "SCALAR"
    },
    {
      "bufferView": 2,
      "byteOffset": 22320,
      "componentType": 5126,
      "count": 192,
      "max": [
        1.91936194896698,
        1.485234022140503,
        10.876481056213379
      ],
      "min": [
        -1.9330320358276367,
        -1.59197998046875,
        0.0
      ],
      "type": "VEC3"
    },
    {
      "bufferView": 2,
      "byteOffset": 24624,
      "componentType": 5126,
      "count": 192,
      "max": [
        1.0,
        1.0,
        1.0
      ],
      "min": [
        -1.0,
        -1.0,
        -1.0
      ],
      "type": "VEC3"
    },
    {
      "bufferView": 1,
      "byteOffset": 7440,
      "componentType": 5126,
      "count": 192,
      "max": [
        0.9980080127716064,
        0.9980080127716064
      ],
      "min": [
        0.001854000031016767,
        0.001370999962091446
      ],
      "type": "VEC2"
    },
    {
      "bufferView": 0,
      "byteOffset": 18000,
      "componentType": 5125,
      "count": 300,
      "type": "SCALAR"
    }
  ],
  "asset": {
    "extras": {
      "author": "Nandakishore B (https://sketchfab.com/nandakishoreb)",
      "license": "CC-BY-4.0 (http://creativecommons.org/licenses/by/4.0/)",
      "source": "https://sketchfab.com/3d-models/book-shelf-1511cd2d3b034201854ae1b2c9a1ea6f",
      "title": "Book Shelf"
    },
    "generator": "Sketchfab-16.12.0",
    "version": "2.0"
  },
  "bufferViews": [
    {
      "buffer": 0,
      "byteLength": 19200,
      "name": "floatBufferViews",
      "target": 34963
    },
    {
      "buffer": 0,
      "byteLength": 8976,
      "byteOffset": 19200,
      "byteStride": 8,
      "name": "floatBufferViews",
      "target": 34962
    },
    {
      "buffer": 0,
      "byteLength": 26928,
      "byteOffset": 28176,
      "byteStride": 12,
      "name": "floatBufferViews",
      "target": 34962
    }
  ],
  "buffers": [
    {
      "byteLength": 55104,
      "uri": "scene.bin"
    }
  ],
  "extensionsUsed": [
    "KHR_materials_specular"
  ],
  "images": [
    {
      "uri": "textures/aiStandardSurface32SG_baseColor.jpeg"
    },
    {
      "uri": "textures/aiStandardSurface7SG_baseColor.jpeg"
    }
  ],
  "materials": [
    {
      "doubleSided": true,
      "extensions": {
        "KHR_materials_specular": {
          "specularColorFactor": [
            1.0,
            1.0,
            1.0
          ],
          "specularFactor": 0.7345305074500171
        }
      },
      "name": "aiStandardSurface32SG",
      "pbrMetallicRoughness": {
        "baseColorTexture": {
          "index": 0
        },
        "metallicFactor": 0.0,
        "roughnessFactor": 0.7406035171729057
      }
    },
    {
      "doubleSided": true,
      "name": "aiStandardSurface7SG",
      "pbrMetallicRoughness": {
        "baseColorTexture": {
          "index": 1
        },
        "metallicFactor": 0.0,
        "roughnessFactor": 0.7466765268957943
      }
    }
  ],
  "meshes": [
    {
      "name": "Object_0",
      "primitives": [
        {
          "attributes": {
            "NORMAL": 1,
            "POSITION": 0,
            "TEXCOORD_0": 2
          },
          "indices": 3,
          "material": 0,
          "mode": 4
        }
      ]
    },
    {
      "name": "Object_1",
      "primitives": [
        {
          "attributes": {
            "NORMAL": 5,
            "POSITION": 4,
            "TEXCOORD_0": 6
          },
          "indices": 7,
          "material": 1,
          "mode": 4
        }
      ]
    }
  ],
  "nodes": [
    {
      "children": [
        1
      ],
      "matrix": [
        0.20000000298023224,
        0.0,
        0.0,
        0.0,
        0.0,
        4.440892164675075e-17,
        -0.20000000298023224,
        0.0,
        0.0,
        0.20000000298023224,
        4.440892164675075e-17,
        0.0,
        0.0,
        0.0,
        0.0,
        1.0
      ],
      "name": "Sketchfab_model"
    },
    {
      "children": [
        2,
        3
      ],
      "name": "41988284e3884cf9b06cf21c07211a5c.obj.cleaner.materialmerger.gles"
    },
    {
      "mesh": 0,
      "name": "Object_2"
    },
    {
      "mesh": 1,
      "name": "Object_3"
    }
  ],
  "samplers": [
    {
      "magFilter": 9729,
      "minFilter": 9987,
      "wrapS": 10497,
      "wrapT": 10497
    }
  ],
  "scene": 0,
  "scenes": [
    {
      "name": "Sketchfab_Scene",
      "nodes": [
        0
      ]
    }
  ],
  "textures": [
    {
      "sampler": 0,
      "source": 0
    },
    {
      "sampler": 0,
      "source": 1
    }
  ]
}
