{
  "accessors": [
    {
      "bufferView": 2,
      "componentType": 5126,
      "count": 2622,
      "max": [
        82.35783386230469,
        -29.596229553222656,
        66.05758666992188
      ],
      "min": [
        -6.988407135009766,
        -132.3447265625,
        -0.024309000000357628
      ],
      "type": "VEC3"
    },
    {
      "bufferView": 2,
      "byteOffset": 31464,
      "componentType": 5126,
      "count": 2622,
      "max": [
        1.0,
        1.0,
        1.0
      ],
      "min": [
        -1.0,
        -1.0,
        -1.0
      ],
      "type": "VEC3"
    },
    {
      "bufferView": 1,
      "componentType": 5126,
      "count": 2622,
      "max": [
        0.9913380146026611,
        0.9943709969520569
      ],
      "min": [
        0.0061090001836419106,
        0.008538000285625458
      ],
      "type": "VEC2"
    },
    {
      "bufferView": 0,
      "componentType": 5125,
      "count": 13464,
      "type": "SCALAR"
    }
  ],
  "asset": {
    "extras": {
      "author": "Pratibha (https://sketchfab.com/Camay)",
      "license": "CC-BY-4.0 (http://creativecommons.org/licenses/by/4.0/)",
      "source": "https://sketchfab.com/3d-models/pottery-pots-d2b8a4292cf2434aa97e5c228fa8cee4",
      "title": "Pottery Pots"
    },
    "generator": "Sketchfab-15.32.0",
    "version": "2.0"
  },
  "bufferViews": [
    {
      "buffer": 0,
      "byteLength": 53856,
      "name": "floatBufferViews",
      "target": 34963
    },
    {
      "buffer": 0,
      "byteLength": 20976,
      "byteOffset": 53856,
      "byteStride": 8,
      "name": "floatBufferViews",
      "target": 34962
    },
    {
      "buffer": 0,
      "byteLength": 62928,
      "byteOffset": 74832,
      "byteStride": 12,
      "name": "floatBufferViews",
      "target": 34962
    }
  ],
  "buffers": [
    {
      "byteLength": 137760,
      "uri": "scene.bin"
    }
  ],
  "extensionsUsed": [
    "KHR_materials_specular"
  ],
  "materials": [
    {
      "doubleSided": true,
      "extensions": {
        "KHR_materials_specular": {
          "specularColorFactor": [
            1.0,
            1.0,
            1.0
          ],
          "specularFactor": 0.8396216064658483
        }
      },
      "name": "initialShadingGroup",
      "pbrMetallicRoughness": {
        "baseColorFactor": [
          0.2307903924940071,
          0.10527300221985457,
          0.05641970382952382,
          1.0
        ],
        "metallicFactor": 0.0,
        "roughnessFactor": 0.5531445429167022
      }
    }
  ],
  "meshes": [
    {
      "name": "Object_0",
      "primitives": [
        {
          "attributes": {
            "NORMAL": 1,
            "POSITION": 0,
            "TEXCOORD_0": 2
          },
          "indices": 3,
          "material": 0,
          "mode": 4
        }
      ]
    }
  ],
  "nodes": [
    {
      "children": [
        1
      ],
      "matrix": [
        1.0,
        0.0,
        0.0,
        0.0,
        0.0,
        2.220446049250313e-16,
        -1.0,
        0.0,
        0.0,
        1.0,
        2.220446049250313e-16,
        0.0,
        0.0,
        0.0,
        0.0,
        1.0
      ],
      "name": "Sketchfab_model"
    },
    {
      "children": [
        2
      ],
      "name": "edb10d1ebb244f2cbadf1d9a046c5df6.obj.cleaner.materialmerger.gles"
    },
    {
      "mesh": 0,
      "name": "Object_2"
    }
  ],
  "scene": 0,
  "scenes": [
    {
      "name": "Sketchfab_Scene",
      "nodes": [
        0
      ]
    }
  ]
}
